
<svg xmlns="http://www.w3.org/2000/svg" xmlns:xlink="http://www.w3.org/1999/xlink" width="22px" height="22px" viewBox="0 0 9 10" version="1.1">
<g>
<path d="M 9 5.113281 C 9 7.875 7.214844 9.84375 4.574219 9.84375 C 2.042969 9.84375 0 7.679688 0 5 C 0 2.320312 2.042969 0.15625 4.574219 0.15625 C 5.804688 0.15625 6.84375 0.632812 7.640625 1.421875 L 6.394531 2.691406 C 4.765625 1.027344 1.738281 2.277344 1.738281 5 C 1.738281 6.6875 3.011719 8.058594 4.574219 8.058594 C 6.386719 8.058594 7.0625 6.683594 7.171875 5.972656 L 4.574219 5.972656 L 4.574219 4.304688 L 8.929688 4.304688 C 8.96875 4.554688 9 4.792969 9 5.113281 Z M 9 5.113281 "  fill="#8d8d8d"/>
</g>
</svg>
