
<svg xmlns="http://www.w3.org/2000/svg" xmlns:xlink="http://www.w3.org/1999/xlink" width="22px" height="22px" viewBox="0 0 8 10" version="1.1">
<g >
<path d="M 1.789062 8.75 L 0.132812 8.75 L 0.132812 2.90625 L 1.789062 2.90625 Z M 0.960938 2.109375 C 0.429688 2.109375 0 1.632812 0 1.050781 C 0 0.46875 0.429688 0 0.960938 0 C 1.492188 0 1.921875 0.46875 1.921875 1.050781 C 1.921875 1.632812 1.492188 2.109375 0.960938 2.109375 Z M 8 8.75 L 6.34375 8.75 L 6.34375 5.90625 C 6.34375 5.226562 6.332031 4.359375 5.480469 4.359375 C 4.617188 4.359375 4.488281 5.09375 4.488281 5.859375 L 4.488281 8.75 L 2.828125 8.75 L 2.828125 2.90625 L 4.421875 2.90625 L 4.421875 3.703125 L 4.445312 3.703125 C 4.664062 3.246094 5.207031 2.761719 6.011719 2.761719 C 7.691406 2.761719 8 3.96875 8 5.539062 Z M 8 8.75 "  fill="#8d8d8d"/>
</g>
</svg>
