
<svg xmlns="http://www.w3.org/2000/svg" xmlns:xlink="http://www.w3.org/1999/xlink" width="22px" height="22px" viewBox="0 0 7 10" version="1.1">
<g >
<path  d="M 3.71875 0.125 C 1.847656 0.125 0 1.460938 0 3.625 C 0 5 0.722656 5.78125 1.160156 5.78125 C 1.339844 5.78125 1.445312 5.242188 1.445312 5.089844 C 1.445312 4.90625 1.011719 4.523438 1.011719 3.765625 C 1.011719 2.195312 2.128906 1.082031 3.570312 1.082031 C 4.8125 1.082031 5.730469 1.839844 5.730469 3.226562 C 5.730469 4.265625 5.34375 6.210938 4.085938 6.210938 C 3.632812 6.210938 3.242188 5.859375 3.242188 5.351562 C 3.242188 4.613281 3.722656 3.898438 3.722656 3.136719 C 3.722656 1.84375 2.011719 2.078125 2.011719 3.640625 C 2.011719 3.96875 2.050781 4.335938 2.1875 4.632812 C 1.9375 5.792969 1.421875 7.523438 1.421875 8.71875 C 1.421875 9.085938 1.472656 9.449219 1.503906 9.816406 C 1.566406 9.890625 1.535156 9.882812 1.628906 9.847656 C 2.546875 8.5 2.515625 8.234375 2.929688 6.472656 C 3.15625 6.929688 3.734375 7.175781 4.195312 7.175781 C 6.128906 7.175781 7 5.152344 7 3.332031 C 7 1.390625 5.4375 0.125 3.71875 0.125 Z M 3.71875 0.125 " fill="#8d8d8d"/>
</g>
</svg>
