
<svg xmlns="http://www.w3.org/2000/svg" xmlns:xlink="http://www.w3.org/1999/xlink" width="22px" height="22px" viewBox="0 0 22 22" version="1.1">
<g >
<path  d="M 19.738281 6.519531 C 19.753906 6.714844 19.753906 6.910156 19.753906 7.105469 C 19.753906 13.066406 15.214844 19.933594 6.925781 19.933594 C 4.371094 19.933594 1.996094 19.195312 0 17.910156 C 0.363281 17.953125 0.710938 17.964844 1.089844 17.964844 C 3.195312 17.964844 5.136719 17.253906 6.6875 16.039062 C 4.703125 15.996094 3.042969 14.699219 2.472656 12.914062 C 2.75 12.953125 3.027344 12.980469 3.324219 12.980469 C 3.726562 12.980469 4.132812 12.925781 4.507812 12.828125 C 2.441406 12.410156 0.894531 10.59375 0.894531 8.402344 L 0.894531 8.347656 C 1.492188 8.683594 2.191406 8.890625 2.929688 8.921875 C 1.71875 8.109375 0.921875 6.726562 0.921875 5.164062 C 0.921875 4.328125 1.144531 3.558594 1.535156 2.890625 C 3.753906 5.625 7.089844 7.414062 10.832031 7.609375 C 10.761719 7.273438 10.722656 6.925781 10.722656 6.574219 C 10.722656 4.089844 12.730469 2.066406 15.230469 2.066406 C 16.527344 2.066406 17.699219 2.609375 18.523438 3.488281 C 19.542969 3.292969 20.519531 2.917969 21.386719 2.402344 C 21.050781 3.449219 20.339844 4.328125 19.402344 4.886719 C 20.3125 4.789062 21.191406 4.535156 22 4.1875 C 21.386719 5.082031 20.617188 5.875 19.738281 6.519531 Z M 19.738281 6.519531 "  fill="#8d8d8d"/>
</g>
</svg>
